<?xml version="1.0" encoding="UTF-8"?>
<svg id="Ebene_1" data-name="Ebene 1" xmlns="http://www.w3.org/2000/svg" viewBox="0 0 340.83 340.83">
  <defs>
    <style>
      .cls-1 {
        fill: #000;
        stroke-width: 0px;
      }
    </style>
  </defs>
  <path class="cls-1" d="M170.42,0C76.45,0,0,76.45,0,170.42s76.45,170.42,170.42,170.42,170.42-76.45,170.42-170.42S264.38,0,170.42,0ZM170.42,317.83c-81.29,0-147.42-66.13-147.42-147.42S89.13,23,170.42,23s147.42,66.13,147.42,147.42-66.13,147.42-147.42,147.42Z"/>
  <path class="cls-1" d="M233.45,95.69c-15.2-11.42-32.84-18.33-51.53-20.3v-19.71h-23v19.79c-41.66,4.76-77.28,34.43-88.84,75.43-.03.11-.06.22-.09.33-.92,3.7.05,7.6,2.56,10.43,2.45,2.76,5.95,5.13,10.2,7.17,5.28,49.22,36.48,92.4,82.84,113.86,1.53.71,3.18,1.06,4.83,1.06s3.3-.35,4.83-1.06c46.93-21.72,78.2-65.5,82.99-115.38,4.28-2.28,7.65-4.84,10.13-7.71,2.6-2.99,3.48-7.12,2.31-10.91-6.41-20.95-19.64-39.77-37.24-53ZM170.71,97.78c17.81,0,34.73,5.64,48.93,16.3,11.57,8.69,20.72,20.48,26.31,33.74-9.56,4.43-31.2,9.38-66.93,10.23-20.96.5-41.96-.6-59.12-3.09-13.06-1.89-20.66-4.11-24.97-5.82,12.21-30.62,42.26-51.37,75.78-51.37ZM170.42,259.45c-33.28-17.16-56.43-47.88-63.34-83.28,22.87,4.41,49.82,4.99,62.4,4.99.6,0,1.18,0,1.71,0,21.29-.09,41.03-1.68,57.09-4.6,1.94-.35,3.8-.73,5.61-1.11-6.71,35.72-29.91,66.71-63.47,84.01Z"/>
</svg>